<svg xmlns="http://www.w3.org/2000/svg" xmlns:xlink="http://www.w3.org/1999/xlink" viewBox="0 0 625.01 457.51">
    <defs>
        <style>
            .cls-1 {
                fill: #fff;
            }

            .cls-2 {
                isolation: isolate;
            }

            .cls-3 {
                mix-blend-mode: overlay;
            }

            .cls-4 {
                fill: #49fcd4;
            }

            .cls-5 {
                fill: #fdfdfd;
            }

            .cls-6 {
                mask: url(#mask);
            }

            .cls-7 {
                fill: #de6e4b;
            }

            .cls-8 {
                fill: #ffc478;
            }

            .cls-9 {
                fill: #f9f9f9;
            }

            .cls-10 {
                fill: #e56399;
            }
        </style>
        <mask id="mask" x="203.38" y="123.81" width="251.56" height="252.48" maskUnits="userSpaceOnUse">
            <circle class="cls-1" cx="329.16" cy="242.24" r="109.21" />
        </mask>
    </defs>
    <title>Asset 13</title>
    <g class="cls-2">
        <g id="Layer_2" data-name="Layer 2">
            <g id="OBJECTS">
                <g class="cls-3">
                    <path class="cls-4"
                        d="M576,267.84a28.5,28.5,0,0,1-2,2.17l-11.68,11.67a19.35,19.35,0,0,0,0,27.37L573,319.71a25.76,25.76,0,0,1,.63,35.78h0A25.77,25.77,0,0,1,538,357.4c-8.71-7.54-10.6-12.78-19.68-14.8-4.13-.92-8.47,1.61-11.69,4.83l-1.07,1.09a9.92,9.92,0,0,0,0,14.07l25.66,25.66a24.46,24.46,0,1,1-34.6,34.59L462,388.28a18.94,18.94,0,0,0-26.78,0l-.2.2a18.65,18.65,0,0,0,0,26.38h0a25,25,0,0,1,0,35.32h0a25,25,0,0,1-35.32,0l-61.37-61.37a19.86,19.86,0,0,0-27.8-.27h0a19.85,19.85,0,0,0-.29,28.34l.63.63a16,16,0,0,1-.08,22.67h0a16,16,0,0,1-22.52-.08L144.22,296.05,62,213.83a46.35,46.35,0,0,1,65.55-65.55l18.82,18.83a10,10,0,0,0,14.08,0l7.84-7.84a10,10,0,0,0,0-14.08L135.09,112a16.42,16.42,0,0,1,23.22-23.22l30.63,30.63a9.93,9.93,0,0,0,14.08,0l3-3a10,10,0,0,0,0-14.08L167.63,63.92A28.92,28.92,0,1,1,208.53,23l68.93,68.93a10,10,0,0,0,14.08,0l1.17-1.18a10,10,0,0,0,0-14.08L281.38,65.35a17.33,17.33,0,1,1,24.51-24.51l74,74A10,10,0,0,0,394,100.77L374.52,81.3a18.9,18.9,0,0,1,26.72-26.74l172.82,172.8A30.14,30.14,0,0,1,576,267.84Z" />
                    <path class="cls-4"
                        d="M185,393.92h0a19.26,19.26,0,0,1-27.25,0l-53.2-53.2a19.26,19.26,0,0,1,0-27.25h0a19.28,19.28,0,0,1,27.25,0l53.2,53.2A19.28,19.28,0,0,1,185,393.92Z" />
                    <path class="cls-4"
                        d="M240,448.92h0a19.27,19.27,0,0,1-27.24,0L201.86,438a19.28,19.28,0,0,1,0-27.25h0a19.26,19.26,0,0,1,27.25,0L240,421.67A19.26,19.26,0,0,1,240,448.92Z" />
                    <path class="cls-4"
                        d="M359.44,43.78h0a19.26,19.26,0,0,1-27.25,0L321.3,32.89a19.26,19.26,0,0,1,0-27.25h0a19.28,19.28,0,0,1,27.25,0l10.89,10.9A19.27,19.27,0,0,1,359.44,43.78Z" />
                    <path class="cls-4"
                        d="M565.65,169.8h0a19.26,19.26,0,0,1-27.25,0l-10.89-10.89a19.28,19.28,0,0,1,0-27.25h0a19.28,19.28,0,0,1,27.25,0l10.89,10.89A19.26,19.26,0,0,1,565.65,169.8Z" />
                </g>
            </g>
        </g>
    </g>
</svg>