<svg xmlns="http://www.w3.org/2000/svg" viewBox="0 0 639.35 457.51">
    <defs>
        <style>
            .cls-1 {
                isolation: isolate;
            }

            .cls-2 {
                mix-blend-mode: overlay;
            }

            .cls-3 {
                fill: #DDEEE3;
            }

            .cls-4 {
                fill: #e56399;
            }

            .cls-5 {
                fill: #ffc478;
            }

            .cls-6 {
                fill: #e56399;
            }

            .cls-7 {
                fill: #fff;
            }
        </style>
    </defs>
    <title>Effect</title>
    <g class="cls-1">
        <g id="Layer_2" data-name="Layer 2">
            <g id="OBJECTS">
                <g class="cls-2">
                    <path class="cls-3"
                        d="M587.65,267.84c-.62.75-1.27,1.48-2,2.17L574,281.68a19.35,19.35,0,0,0,0,27.37l10.66,10.66a25.76,25.76,0,0,1,.63,35.78h0a25.77,25.77,0,0,1-35.72,1.91c-8.71-7.54-10.6-12.78-19.67-14.8-4.14-.92-8.48,1.61-11.7,4.83l-1.07,1.09a9.94,9.94,0,0,0,0,14.07l25.66,25.66a24.46,24.46,0,1,1-34.6,34.59l-34.55-34.56a19,19,0,0,0-26.79,0l-.2.2a18.66,18.66,0,0,0,0,26.38h0a25,25,0,0,1,0,35.32h0a25,25,0,0,1-35.33,0L350,388.82a19.86,19.86,0,0,0-27.8-.27h0a19.85,19.85,0,0,0-.28,28.34l.62.63a16,16,0,0,1-.08,22.67h0a16,16,0,0,1-22.52-.08L155.85,296.05,73.63,213.83a46.35,46.35,0,0,1,65.55-65.55L158,167.11a10,10,0,0,0,14.08,0l7.84-7.84a10,10,0,0,0,0-14.08L146.73,112a16.42,16.42,0,0,1,23.21-23.22l30.63,30.63a9.93,9.93,0,0,0,14.08,0l3-3a10,10,0,0,0,0-14.08l-38.4-38.41A28.92,28.92,0,1,1,220.16,23l68.93,68.93a10,10,0,0,0,14.08,0l1.17-1.18a10,10,0,0,0,0-14.08L293,65.35a17.33,17.33,0,1,1,24.51-24.51l74,74a10,10,0,0,0,14.08-14.08L386.15,81.3a18.9,18.9,0,0,1,26.72-26.74l172.82,172.8A30.15,30.15,0,0,1,587.65,267.84Z" />
                    <path class="cls-3"
                        d="M196.64,393.92h0a19.26,19.26,0,0,1-27.25,0l-53.2-53.2a19.28,19.28,0,0,1,0-27.25h0a19.28,19.28,0,0,1,27.25,0l53.2,53.2A19.26,19.26,0,0,1,196.64,393.92Z" />
                    <path class="cls-3"
                        d="M251.64,448.92h0a19.28,19.28,0,0,1-27.25,0L213.5,438a19.26,19.26,0,0,1,0-27.25h0a19.25,19.25,0,0,1,27.24,0l10.9,10.89A19.28,19.28,0,0,1,251.64,448.92Z" />
                    <path class="cls-3"
                        d="M371.07,43.78h0a19.26,19.26,0,0,1-27.25,0L332.93,32.89a19.28,19.28,0,0,1,0-27.25h0a19.28,19.28,0,0,1,27.25,0l10.89,10.9A19.25,19.25,0,0,1,371.07,43.78Z" />
                    <path class="cls-3"
                        d="M577.28,169.8h0a19.25,19.25,0,0,1-27.24,0l-10.9-10.89a19.28,19.28,0,0,1,0-27.25h0a19.28,19.28,0,0,1,27.25,0l10.89,10.89A19.26,19.26,0,0,1,577.28,169.8Z" />
                </g>
            </g>
        </g>
    </g>
</svg>