<svg xmlns="http://www.w3.org/2000/svg" viewBox="0 0 639.35 457.51">
    <defs>
        <style>
            .cls-1 {
                isolation: isolate;
            }

            .cls-2 {
                mix-blend-mode: overlay;
            }

            .cls-3 {
                fill: #49fcd4;
            }

            .cls-4 {
                fill: #e56399;
            }

            .cls-5 {
                fill: #ffc478;
            }

            .cls-6 {
                fill: #e56399;
            }

            .cls-7 {
                fill: #fff;
            }
        </style>
    </defs>
    <title>Asset4</title>
    <g class="cls-1">
        <g id="Layer_2" data-name="Layer 2">
            <g id="OBJECTS">
                <g id="_9" data-name="9">
                    <path class="cls-5"
                        d="M595.36,203.34a2,2,0,0,1-2.4,1.47l-17-4.1-4.09,17a2,2,0,0,1-2.41,1.47l-17-4.1-4.1,17a2,2,0,0,1-2.4,1.47l-17-4.1-4.1,17a2,2,0,0,1-3.86-.94l4.56-18.91a2,2,0,0,1,2.4-1.47l17,4.1,4.1-17a2,2,0,0,1,2.4-1.47l17,4.1,4.1-17a2,2,0,0,1,2.4-1.46l18.91,4.56A2,2,0,0,1,595.36,203.34Z" />
                </g>
            </g>
        </g>
    </g>
</svg>